<svg width="10" height="10" viewBox="0 0 10 10" fill="none" xmlns="http://www.w3.org/2000/svg">
<path d="M4.995 0C2.235 0 0 2.24 0 5C0 7.76 2.235 10 4.995 10C7.76 10 10 7.76 10 5C10 2.24 7.76 0 4.995 0ZM5 9C2.79 9 1 7.21 1 5C1 2.79 2.79 1 5 1C7.21 1 9 2.79 9 5C9 7.21 7.21 9 5 9ZM4.89 2.5H4.86C4.66 2.5 4.5 2.66 4.5 2.86V5.22C4.5 5.395 4.59 5.56 4.745 5.65L6.82 6.895C6.99 6.995 7.21 6.945 7.31 6.775C7.33511 6.73451 7.35181 6.68939 7.35911 6.64231C7.36641 6.59524 7.36416 6.54717 7.3525 6.50098C7.34084 6.4548 7.32 6.41143 7.29122 6.37346C7.26244 6.3355 7.22632 6.30371 7.185 6.28L5.25 5.13V2.86C5.25 2.66 5.09 2.5 4.89 2.5Z" fill="#606160"/>
</svg>
