<svg width="13" height="13" viewBox="0 0 13 13" fill="none" xmlns="http://www.w3.org/2000/svg">
<path fill-rule="evenodd" clip-rule="evenodd" d="M2.75 0.25C2.25272 0.25 1.77581 0.447544 1.42417 0.799175C1.07254 1.15081 0.875 1.62772 0.875 2.125V10.875C0.875 11.3723 1.07254 11.8492 1.42417 12.2008C1.77581 12.5525 2.25272 12.75 2.75 12.75H10.25C10.7473 12.75 11.2242 12.5525 11.5758 12.2008C11.9275 11.8492 12.125 11.3723 12.125 10.875V4.625C12.125 3.46468 11.6641 2.35188 10.8436 1.53141C10.0231 0.710936 8.91032 0.25 7.75 0.25H2.75ZM2.75 1.5H7.125V4.625H10.875V10.875C10.875 11.0408 10.8092 11.1997 10.6919 11.3169C10.5747 11.4342 10.4158 11.5 10.25 11.5H2.75C2.58424 11.5 2.42527 11.4342 2.30806 11.3169C2.19085 11.1997 2.125 11.0408 2.125 10.875V2.125C2.125 1.95924 2.19085 1.80027 2.30806 1.68306C2.42527 1.56585 2.58424 1.5 2.75 1.5ZM8.375 1.5625C8.86624 1.66314 9.32611 1.8803 9.71592 2.19572C10.1057 2.51114 10.4141 2.91558 10.615 3.375H8.375V1.5625Z" fill="#606160"/>
</svg>
