<svg width="9" height="10" viewBox="0 0 9 10" fill="none" xmlns="http://www.w3.org/2000/svg">
<path d="M9 1.96572V4.70592H4.68647L6.16809 3.31764C6.24892 3.23794 6.29332 3.13181 6.29182 3.02188C6.29031 2.91195 6.24303 2.80692 6.16005 2.72918C6.07707 2.65145 5.96496 2.60715 5.84762 2.60574C5.73027 2.60434 5.61698 2.64593 5.53191 2.72165L3.28191 4.82949C3.19758 4.90854 3.15021 5.01573 3.15021 5.12749C3.15021 5.23925 3.19758 5.34643 3.28191 5.42549L5.53191 7.53333C5.61698 7.60905 5.73027 7.65064 5.84762 7.64923C5.96496 7.64783 6.07707 7.60353 6.16005 7.52579C6.24303 7.44806 6.29031 7.34303 6.29182 7.2331C6.29332 7.12317 6.24892 7.01704 6.16809 6.93734L4.68647 5.54906H9V8.28925C8.99955 8.68045 8.83347 9.0555 8.5382 9.33212C8.24293 9.60874 7.84258 9.76433 7.425 9.76474H1.575C1.15742 9.76433 0.757073 9.60874 0.461801 9.33212C0.166527 9.0555 0.000447273 8.68045 0 8.28925V1.96572C0.000447273 1.57453 0.166527 1.19948 0.461801 0.922858C0.757073 0.64624 1.15742 0.490653 1.575 0.490234H7.425C7.84258 0.490653 8.24293 0.64624 8.5382 0.922858C8.83347 1.19948 8.99955 1.57453 9 1.96572Z" fill="#606160"/>
</svg>
