<svg width="12" height="12" viewBox="0 0 12 12" fill="none" xmlns="http://www.w3.org/2000/svg">
<path d="M6.83017 0.801821C3.82056 0.720948 1.35493 3.0836 1.35493 6.0008H0.296546C0.0304712 6.0008 -0.09961 6.31274 0.0895989 6.49182L1.73926 8.10928C1.85752 8.22481 2.04082 8.22481 2.15907 8.10928L3.80874 6.49182C3.8496 6.45109 3.8772 6.39947 3.88808 6.34344C3.89895 6.28741 3.89261 6.2295 3.86984 6.17699C3.84708 6.12448 3.80892 6.07973 3.76016 6.04837C3.71141 6.01702 3.65424 6.00047 3.59588 6.0008H2.53749C2.53749 3.74791 4.41775 1.92827 6.73556 1.95715C8.93512 1.98603 10.7858 3.79412 10.8154 5.94304C10.8449 8.2017 8.98242 10.0445 6.67643 10.0445C5.72448 10.0445 4.84347 9.72674 4.14577 9.18951C4.03251 9.10235 3.89042 9.0589 3.74651 9.06742C3.60261 9.07594 3.46693 9.13584 3.36528 9.23572C3.11694 9.47834 3.13468 9.88848 3.41258 10.0964C4.34155 10.8142 5.49209 11.2031 6.67643 11.1998C9.66239 11.1998 12.0807 8.79092 11.9979 5.85061C11.9211 3.14136 9.60326 0.876917 6.83017 0.801821ZM6.52862 3.69014C6.28619 3.69014 6.08516 3.88655 6.08516 4.12339V6.2492C6.08516 6.45138 6.1975 6.64201 6.37488 6.74599L8.21967 7.81467C8.43253 7.93598 8.70452 7.86666 8.82869 7.66448C8.95285 7.45652 8.8819 7.19079 8.67495 7.06948L6.97207 6.08168V4.11762C6.97207 3.88655 6.77104 3.69014 6.52862 3.69014Z" fill="#606160"/>
</svg>
