<svg width="9" height="12" viewBox="0 0 9 12" fill="none" xmlns="http://www.w3.org/2000/svg">
<path d="M4.5 0C1.99922 0 0 1.99922 0 4.5C0 5.36484 0.257812 6.03281 0.705469 6.71016L4.02656 11.7492C4.12734 11.9016 4.30078 12 4.5 12C4.69922 12 4.875 11.8992 4.97344 11.7492L8.29453 6.71016C8.74219 6.03281 9 5.36484 9 4.5C9 1.99922 7.00078 0 4.5 0ZM4.5 6.99844C3.11953 6.99844 1.99922 5.87813 1.99922 4.49531C1.99922 3.1125 3.11953 1.99219 4.5 1.99219C5.88047 1.99219 7.00078 3.1125 7.00078 4.49531C7.00078 5.87813 5.88047 6.99844 4.5 6.99844Z" fill="#606160"/>
</svg>
