<svg width="17" height="17" viewBox="0 0 17 17" fill="none" xmlns="http://www.w3.org/2000/svg">
<path d="M16.2083 3.64581L13.3542 0.79164C12.9817 0.44174 12.4935 0.240973 11.9826 0.227528C11.4717 0.214084 10.9737 0.388901 10.5833 0.718724L1.20834 10.0937C0.871635 10.4333 0.661988 10.8783 0.614587 11.3541L0.166671 15.6979C0.152638 15.8505 0.172435 16.0042 0.224651 16.1483C0.276866 16.2923 0.360214 16.4231 0.468754 16.5312C0.566087 16.6278 0.681521 16.7041 0.808435 16.756C0.935349 16.8078 1.07125 16.8341 1.20834 16.8333H1.30209L5.64584 16.4375C6.12167 16.3901 6.56671 16.1804 6.90625 15.8437L16.2813 6.46872C16.6451 6.08431 16.8418 5.57134 16.8281 5.0422C16.8144 4.51306 16.5916 4.01092 16.2083 3.64581ZM5.45834 14.3541L2.33334 14.6458L2.61459 11.5208L8.5 5.70831L11.3125 8.52081L5.45834 14.3541ZM12.6667 7.12497L9.875 4.33331L11.9063 2.24997L14.75 5.09372L12.6667 7.12497Z" fill="#606160"/>
</svg>
