<svg width="20" height="20" viewBox="0 0 20 20" fill="none" xmlns="http://www.w3.org/2000/svg">
<path d="M10 0C8.02219 0 6.08879 0.58649 4.4443 1.6853C2.79981 2.78412 1.51809 4.3459 0.761209 6.17316C0.00433283 8.00043 -0.1937 10.0111 0.192152 11.9509C0.578004 13.8907 1.53041 15.6725 2.92894 17.0711C4.32746 18.4696 6.10929 19.422 8.0491 19.8078C9.98891 20.1937 11.9996 19.9957 13.8268 19.2388C15.6541 18.4819 17.2159 17.2002 18.3147 15.5557C19.4135 13.9112 20 11.9778 20 10C20 7.34783 18.9464 4.80429 17.0711 2.92893C15.1957 1.05357 12.6522 0 10 0ZM15.7143 16.3707V15.9364C15.7341 14.9624 15.3712 14.0195 14.7034 13.3102C14.0356 12.6009 13.1163 12.1817 12.1429 12.1429H7.85715C6.88454 12.1819 5.96615 12.6012 5.29956 13.3106C4.63298 14.0199 4.27149 14.9626 4.29286 15.9357C4.29286 15.9436 4.28572 15.9514 4.28572 15.9593V16.3771C2.98994 15.2205 2.07596 13.6976 1.66476 12.01C1.25357 10.3225 1.36454 8.54985 1.983 6.92677C2.60146 5.30368 3.69823 3.90667 5.12816 2.92065C6.55808 1.93463 8.25372 1.4061 9.99065 1.40502C11.7276 1.40393 13.4239 1.93034 14.855 2.91457C16.2862 3.8988 17.3847 5.29444 18.0052 6.91675C18.6257 8.53907 18.7389 10.3116 18.3298 11.9996C17.9207 13.6877 17.0086 15.2117 15.7143 16.37V16.3707Z" fill="#39B3F2"/>
<path d="M10 4.375C9.38193 4.375 8.77775 4.55828 8.26384 4.90166C7.74994 5.24504 7.3494 5.7331 7.11288 6.30411C6.87635 6.87513 6.81447 7.50347 6.93505 8.10966C7.05563 8.71585 7.35325 9.27267 7.79029 9.70971C8.22733 10.1467 8.78415 10.4444 9.39034 10.565C9.99654 10.6855 10.6249 10.6236 11.1959 10.3871C11.7669 10.1506 12.255 9.75006 12.5983 9.23616C12.9417 8.72225 13.125 8.11807 13.125 7.5C13.125 6.6712 12.7958 5.87634 12.2097 5.29029C11.6237 4.70424 10.8288 4.375 10 4.375Z" fill="#39B3F2"/>
</svg>
