<svg width="20" height="13" viewBox="0 0 20 13" fill="none" xmlns="http://www.w3.org/2000/svg">
<path d="M18.9999 5.2H0.999995C0.449998 5.2 0 5.785 0 6.5C0 7.215 0.449998 7.8 0.999995 7.8H18.9999C19.5499 7.8 19.9999 7.215 19.9999 6.5C19.9999 5.785 19.5499 5.2 18.9999 5.2ZM18.9999 0H0.999995C0.449998 0 0 0.585 0 1.3C0 2.015 0.449998 2.6 0.999995 2.6H18.9999C19.5499 2.6 19.9999 2.015 19.9999 1.3C19.9999 0.585 19.5499 0 18.9999 0ZM0.999995 13H18.9999C19.5499 13 19.9999 12.415 19.9999 11.7C19.9999 10.985 19.5499 10.4 18.9999 10.4H0.999995C0.449998 10.4 0 10.985 0 11.7C0 12.415 0.449998 13 0.999995 13Z" fill="#606160"/>
</svg>
