<svg width="20" height="13" viewBox="0 0 20 13" fill="none" xmlns="http://www.w3.org/2000/svg">
<path d="M16.4 7.6V4.9C16.4 4.405 15.995 4 15.5 4C15.005 4 14.6 4.405 14.6 4.9V7.6H11.9C11.405 7.6 11 8.005 11 8.5C11 8.995 11.405 9.4 11.9 9.4H14.6V12.1C14.6 12.595 15.005 13 15.5 13C15.995 13 16.4 12.595 16.4 12.1V9.4H19.1C19.595 9.4 20 8.995 20 8.5C20 8.005 19.595 7.6 19.1 7.6H16.4Z" fill="#606160"/>
<path d="M8.90121 5.2H0.999995C0.449998 5.2 0 5.785 0 6.5C0 7.215 0.449998 7.8 0.999995 7.8H8.90121C9.45121 7.8 9.90121 7.215 9.90121 6.5C9.90121 5.785 9.45121 5.2 8.90121 5.2ZM18.9999 0H0.999995C0.449998 0 0 0.585 0 1.3C0 2.015 0.449998 2.6 0.999995 2.6H18.9999C19.5499 2.6 19.9999 2.015 19.9999 1.3C19.9999 0.585 19.5499 0 18.9999 0ZM0.999995 13H8.90121C9.45121 13 9.90121 12.415 9.90121 11.7C9.90121 10.985 9.45121 10.4 8.90121 10.4H0.999995C0.449998 10.4 0 10.985 0 11.7C0 12.415 0.449998 13 0.999995 13Z" fill="#606160"/>
</svg>
