<svg width="15" height="15" viewBox="0 0 15 15" fill="none" xmlns="http://www.w3.org/2000/svg">
<path fill-rule="evenodd" clip-rule="evenodd" d="M2.535 2.15167C2.57314 2.1041 2.62049 2.06591 2.67379 2.03973C2.72709 2.01355 2.78507 2 2.84375 2H10.1562C10.2149 2 10.2729 2.01355 10.3262 2.03973C10.3795 2.06591 10.4269 2.1041 10.465 2.15167L12.7067 4.94147C12.896 5.17705 13 5.47708 13 5.78733V5.9H12.1875V5.78733C12.1875 5.68405 12.1529 5.58416 12.09 5.50567L9.96938 2.86667H3.03063L0.91 5.50567C0.84707 5.58416 0.812493 5.68405 0.8125 5.78733V5.9H0V5.78733C1.02319e-05 5.47708 0.104046 5.17705 0.293312 4.94147L2.53581 2.1508L2.535 2.15167Z" fill="#606160"/>
<path d="M1.92969 7.09157C2.54719 7.09157 3.04688 6.5577 3.04688 5.8999H3.85938C3.85938 6.21595 3.97708 6.51906 4.18659 6.74254C4.3961 6.96602 4.68027 7.09157 4.97656 7.09157C5.27286 7.09157 5.55702 6.96602 5.76653 6.74254C5.97605 6.51906 6.09375 6.21595 6.09375 5.8999H6.90625C6.90625 6.21595 7.02395 6.51906 7.23347 6.74254C7.44298 6.96602 7.72714 7.09157 8.02344 7.09157C8.31973 7.09157 8.6039 6.96602 8.81341 6.74254C9.02292 6.51906 9.14062 6.21595 9.14062 5.8999H9.95312C9.95312 6.21595 10.0708 6.51906 10.2803 6.74254C10.4899 6.96602 10.774 7.09157 11.0703 7.09157C11.3666 7.09157 11.6508 6.96602 11.8603 6.74254C12.0698 6.51906 12.1875 6.21595 12.1875 5.8999H13C13 6.32888 12.8744 6.74716 12.6407 7.09627C12.407 7.44538 12.0769 7.70788 11.6965 7.84708C11.3161 7.98628 10.9044 7.99523 10.519 7.87267C10.1336 7.75011 9.79372 7.50217 9.54688 7.1635C9.36661 7.41117 9.13561 7.61155 8.87155 7.7493C8.60749 7.88705 8.31738 7.95852 8.02344 7.95824C7.72948 7.95859 7.43935 7.88715 7.17528 7.74939C6.91121 7.61163 6.68022 7.41122 6.5 7.1635C6.31978 7.41122 6.08879 7.61163 5.82472 7.74939C5.56065 7.88715 5.27052 7.95859 4.97656 7.95824C4.68261 7.95859 4.39248 7.88715 4.12841 7.74939C3.86434 7.61163 3.63334 7.41122 3.45312 7.1635C3.20628 7.50217 2.8664 7.75011 2.481 7.87267C2.09559 7.99523 1.68392 7.98628 1.30351 7.84708C0.923108 7.70788 0.592981 7.44538 0.359273 7.09627C0.125565 6.74716 -4.43613e-05 6.32888 1.17524e-08 5.8999H0.8125C0.8125 6.55857 1.313 7.09157 1.92969 7.09157Z" fill="#606160"/>
<path d="M3.85938 5.90013C3.85938 6.01506 3.81657 6.12528 3.74039 6.20654C3.6642 6.28781 3.56087 6.33346 3.45312 6.33346C3.34538 6.33346 3.24205 6.28781 3.16586 6.20654C3.08968 6.12528 3.04688 6.01506 3.04688 5.90013C3.04688 5.7852 3.08968 5.67498 3.16586 5.59372C3.24205 5.51245 3.34538 5.4668 3.45312 5.4668C3.56087 5.4668 3.6642 5.51245 3.74039 5.59372C3.81657 5.67498 3.85938 5.7852 3.85938 5.90013ZM6.90625 5.90013C6.90625 6.01506 6.86345 6.12528 6.78726 6.20654C6.71108 6.28781 6.60774 6.33346 6.5 6.33346C6.39226 6.33346 6.28892 6.28781 6.21274 6.20654C6.13655 6.12528 6.09375 6.01506 6.09375 5.90013C6.09375 5.7852 6.13655 5.67498 6.21274 5.59372C6.28892 5.51245 6.39226 5.4668 6.5 5.4668C6.60774 5.4668 6.71108 5.51245 6.78726 5.59372C6.86345 5.67498 6.90625 5.7852 6.90625 5.90013ZM9.95312 5.90013C9.95312 6.01506 9.91032 6.12528 9.83414 6.20654C9.75795 6.28781 9.65462 6.33346 9.54688 6.33346C9.43913 6.33346 9.3358 6.28781 9.25961 6.20654C9.18343 6.12528 9.14062 6.01506 9.14062 5.90013C9.14062 5.7852 9.18343 5.67498 9.25961 5.59372C9.3358 5.51245 9.43913 5.4668 9.54688 5.4668C9.65462 5.4668 9.75795 5.51245 9.83414 5.59372C9.91032 5.67498 9.95312 5.7852 9.95312 5.90013ZM1.625 8.80693V14.1335H11.375V8.80693C11.6556 8.77428 11.9297 8.69534 12.1875 8.57293V14.1335H12.5938C12.7015 14.1335 12.8048 14.1791 12.881 14.2604C12.9572 14.3417 13 14.4519 13 14.5668C13 14.6817 12.9572 14.7919 12.881 14.8732C12.8048 14.9545 12.7015 15.0001 12.5938 15.0001H0.40625C0.298506 15.0001 0.195175 14.9545 0.118988 14.8732C0.0428012 14.7919 0 14.6817 0 14.5668C0 14.4519 0.0428012 14.3417 0.118988 14.2604C0.195175 14.1791 0.298506 14.1335 0.40625 14.1335H0.8125V8.57206C1.06519 8.6934 1.33819 8.77313 1.625 8.80693ZM1.625 7.93333V7.20013H0.8125V7.57886C1.04894 7.75826 1.326 7.8822 1.625 7.93333ZM12.1875 7.57886C11.9511 7.75826 11.674 7.8822 11.375 7.93333V7.20013H12.1875V7.57886Z" fill="#606160"/>
<path d="M3.25 12.3998V8.93311H2.4375V12.3998C2.4375 12.6296 2.5231 12.8501 2.67548 13.0126C2.82785 13.1751 3.03451 13.2664 3.25 13.2664H9.75C9.96549 13.2664 10.1722 13.1751 10.3245 13.0126C10.4769 12.8501 10.5625 12.6296 10.5625 12.3998V8.93311H9.75V12.3998H3.25Z" fill="#606160"/>
</svg>
