<svg width="12" height="12" viewBox="0 0 12 12" fill="none" xmlns="http://www.w3.org/2000/svg">
<path d="M5.95662 -0.0145304C5.9371 -0.0110057 5.91783 -0.00622658 5.89892 -0.000222679C5.79472 0.023132 5.70185 0.0818958 5.63612 0.166055C5.57039 0.250215 5.53588 0.354562 5.53846 0.461316V0.922854H1.38462C1.01739 0.922854 0.66521 1.06873 0.405544 1.3284C0.145879 1.58806 0 1.94025 0 2.30747L0 8.30747C0 9.07178 0.620308 9.69208 1.38462 9.69208H5.53846V9.86516L3.02862 11.1201C2.91771 11.1736 2.83263 11.2691 2.79208 11.3853C2.75153 11.5016 2.75883 11.6293 2.81238 11.7402C2.86594 11.8511 2.96135 11.9361 3.07764 11.9767C3.19393 12.0173 3.32156 12.0099 3.43246 11.9564L5.53846 10.9036V11.0767C5.53846 11.1991 5.58709 11.3165 5.67364 11.4031C5.7602 11.4896 5.87759 11.5382 6 11.5382C6.12241 11.5382 6.2398 11.4896 6.32636 11.4031C6.41291 11.3165 6.46154 11.1991 6.46154 11.0767V10.9036L8.56754 11.9564C8.67844 12.0099 8.80607 12.0173 8.92236 11.9767C9.03865 11.9361 9.13406 11.8511 9.18762 11.7402C9.24117 11.6293 9.24847 11.5016 9.20792 11.3853C9.16737 11.2691 9.08229 11.1736 8.97139 11.1201L6.46154 9.86516V9.69208H10.6154C11.3797 9.69208 12 9.07178 12 8.30747V2.30747C12 1.94025 11.8541 1.58806 11.5945 1.3284C11.3348 1.06873 10.9826 0.922854 10.6154 0.922854H6.46154V0.461316C6.46387 0.395684 6.45217 0.330311 6.42721 0.269563C6.40226 0.208816 6.36463 0.154093 6.31683 0.109052C6.26904 0.0640107 6.21218 0.0296876 6.15006 0.00837596C6.08795 -0.0129356 6.02199 -0.020745 5.95662 -0.0145304ZM0.923077 2.30747H11.0769V8.30747H0.923077V2.30747ZM9.63462 2.76901C9.53123 2.78012 9.43463 2.82582 9.36046 2.8987L7.84615 4.41347L6.79338 3.35978C6.74297 3.30804 6.68111 3.26887 6.61279 3.2454C6.54447 3.22193 6.4716 3.21483 6.40003 3.22466C6.32847 3.23449 6.26021 3.26099 6.20075 3.30201C6.14129 3.34303 6.09229 3.39744 6.05769 3.46085L4.68738 5.85532L4.12477 4.44162C4.09745 4.36863 4.05209 4.30374 3.99292 4.25302C3.93375 4.20229 3.8627 4.16737 3.78639 4.15152C3.71008 4.13567 3.631 4.1394 3.55652 4.16236C3.48204 4.18533 3.41459 4.22678 3.36046 4.28285L1.97585 5.66747C1.88771 5.75554 1.83818 5.87502 1.83813 5.99961C1.83809 6.12421 1.88754 6.24372 1.97562 6.33185C2.06369 6.41999 2.18316 6.46952 2.30776 6.46957C2.43236 6.46961 2.55187 6.42016 2.64 6.33208L3.51969 5.45239L4.18338 7.09639C4.21471 7.17884 4.269 7.25059 4.33984 7.30314C4.41067 7.3557 4.49508 7.38685 4.58307 7.39292C4.67106 7.39899 4.75895 7.37972 4.83633 7.3374C4.91371 7.29507 4.97734 7.23145 5.01969 7.15408L6.56308 4.45685L7.51477 5.40901C7.55781 5.45353 7.60937 5.48894 7.66638 5.51313C7.72339 5.53731 7.78469 5.54977 7.84662 5.54977C7.90854 5.54977 7.96984 5.53731 8.02685 5.51313C8.08386 5.48894 8.13542 5.45353 8.17846 5.40901L10.0246 3.56285C10.0975 3.49536 10.1467 3.40613 10.1648 3.30845C10.183 3.21077 10.1691 3.10983 10.1253 3.02066C10.0815 2.93148 10.0101 2.85883 9.92168 2.81349C9.83328 2.76815 9.7326 2.75255 9.63462 2.76901Z" fill="#606160"/>
</svg>
