<svg width="13" height="13" viewBox="0 0 13 13" fill="none" xmlns="http://www.w3.org/2000/svg">
<path d="M6.50006 0.25C3.05381 0.25 0.250061 3.05375 0.250061 6.5V9.08937C0.250061 9.72937 0.810686 10.25 1.50006 10.25H2.12506C2.29082 10.25 2.44979 10.1841 2.567 10.0669C2.68421 9.94973 2.75006 9.79076 2.75006 9.62499V6.41062C2.75006 6.24486 2.68421 6.08589 2.567 5.96868C2.44979 5.85147 2.29082 5.78562 2.12506 5.78562H1.55756C1.90506 3.36687 3.98631 1.5 6.50006 1.5C9.01381 1.5 11.0951 3.36687 11.4426 5.78562H10.8751C10.7093 5.78562 10.5503 5.85147 10.4331 5.96868C10.3159 6.08589 10.2501 6.24486 10.2501 6.41062V10.25C10.2501 10.9394 9.68943 11.5 9.00006 11.5H7.75006V10.875H5.25006V12.75H9.00006C10.3788 12.75 11.5001 11.6287 11.5001 10.25C12.1894 10.25 12.7501 9.72937 12.7501 9.08937V6.5C12.7501 3.05375 9.94631 0.25 6.50006 0.25Z" fill="#606160"/>
</svg>
